<svg width="24" height="24" viewBox="0 0 24 24" fill="none" xmlns="http://www.w3.org/2000/svg">
<path fill-rule="evenodd" clip-rule="evenodd" d="M0 12C0 18.6274 5.37258 24 12 24C18.6274 24 24 18.6274 24 12C24 5.37258 18.6274 0 12 0C5.37258 0 0 5.37258 0 12Z" fill="#0B0B0A"/>
<path fill-rule="evenodd" clip-rule="evenodd" d="M14.0582 5.5975C14.5801 4.9239 14.9756 3.97183 14.8326 3C13.9797 3.05927 12.9828 3.60492 12.4012 4.31615C11.8709 4.96059 11.4351 5.91925 11.6053 6.84968C12.5377 6.87884 13.5 6.32002 14.0582 5.5975ZM18.6667 14.7391C18.2935 15.5707 18.114 15.9423 17.6333 16.679C16.9628 17.7072 16.0174 18.9877 14.8447 18.9971C13.8039 19.0084 13.5355 18.315 12.1225 18.3235C10.7095 18.331 10.4149 19.0102 9.37221 18.9999C8.20046 18.9895 7.30459 17.8343 6.63409 16.806C4.75817 13.9328 4.56086 10.5601 5.71764 8.76605C6.54057 7.49224 7.83856 6.74714 9.058 6.74714C10.2989 6.74714 11.0798 7.43203 12.1075 7.43203C13.1044 7.43203 13.7113 6.74525 15.1468 6.74525C16.2334 6.74525 17.3846 7.34077 18.2038 8.3681C15.518 9.84889 15.9529 13.707 18.6667 14.7391Z" fill="white"/>
</svg>
