<svg width="24" height="25" viewBox="0 0 24 25" fill="none" xmlns="http://www.w3.org/2000/svg">
<g clip-path="url(#clip0_1_96)">
<path fill-rule="evenodd" clip-rule="evenodd" d="M5.01822 12.2553C5.01822 11.477 5.14749 10.7308 5.37822 10.0309L1.33968 6.94687C0.552585 8.54496 0.109131 10.3457 0.109131 12.2553C0.109131 14.1633 0.55204 15.963 1.33804 17.56L5.3744 14.47C5.14586 13.7734 5.01822 13.0299 5.01822 12.2553Z" fill="#FBBC05"/>
<path fill-rule="evenodd" clip-rule="evenodd" d="M12.1091 5.17447C13.8 5.17447 15.3272 5.77362 16.5272 6.75404L20.0181 3.26808C17.8909 1.41617 15.1636 0.272339 12.1091 0.272339C7.36687 0.272339 3.29124 2.9843 1.3396 6.94686L5.37814 10.0308C6.30869 7.20613 8.96124 5.17447 12.1091 5.17447Z" fill="#EA4335"/>
<path fill-rule="evenodd" clip-rule="evenodd" d="M12.1091 19.3362C8.96124 19.3362 6.30869 17.3045 5.37814 14.4798L1.3396 17.5632C3.29124 21.5263 7.36687 24.2383 12.1091 24.2383C15.036 24.2383 17.8303 23.199 19.9276 21.2518L16.0941 18.2882C15.0125 18.9696 13.6505 19.3362 12.1091 19.3362Z" fill="#34A853"/>
<path fill-rule="evenodd" clip-rule="evenodd" d="M23.5637 12.2553C23.5637 11.5472 23.4546 10.7847 23.2909 10.0766H12.1091V14.7064H18.5455C18.2237 16.2849 17.3477 17.4984 16.0942 18.2882L19.9277 21.2518C22.1308 19.2071 23.5637 16.1612 23.5637 12.2553Z" fill="#4285F4"/>
</g>
<defs>
<clipPath id="clip0_1_96">
<rect width="24" height="24.5106" fill="white"/>
</clipPath>
</defs>
</svg>
