<svg width="63" height="60" viewBox="0 0 63 60" fill="none" xmlns="http://www.w3.org/2000/svg">
<path fill-rule="evenodd" clip-rule="evenodd" d="M60.0476 18.9211C57.7348 14.2822 53.7026 10.9886 48.6941 9.64655C44.7596 8.5923 40.6496 9.20841 36.8086 11.4281C36.178 11.7926 35.5598 12.1961 34.9563 12.6364C35.2796 12.9476 35.5934 13.2725 35.8973 13.611C35.9699 13.6918 36.0418 13.7733 36.113 13.8554C37.1335 13.9079 38.1499 14.0682 39.1549 14.3375C44.1635 15.6795 48.1957 18.9732 50.5085 23.612C52.6623 27.9317 53.1563 33.1756 51.8638 37.9993C50.3118 43.7914 47.029 49.0386 42.1064 53.5959C39.7038 55.8201 36.9094 57.883 33.755 59.7638C34.8158 59.3347 35.8987 58.8704 36.9933 58.3684C42.8178 55.6976 47.7475 52.5137 51.6456 48.9049C56.5682 44.3476 59.851 39.1004 61.403 33.3083C62.6955 28.4846 62.2014 23.2407 60.0476 18.9211ZM26.5838 8.12034C25.2605 7.825 23.889 7.67863 22.4865 7.68889C19.7496 7.70891 17.1367 8.47703 14.7727 9.93789C12.887 8.02732 10.6145 6.69009 8.0523 6.00355C5.5908 5.34399 3.09789 5.21059 0.685905 5.58507C1.44835 4.87894 2.2628 4.23634 3.12166 3.66797C7.44405 0.807006 12.5828 -0.029453 17.5914 1.31262C21.2899 2.30363 24.3847 4.65041 26.5838 8.12034Z" fill="#9A68ED"/>
</svg>
